<svg version="1.1" xmlns="http://www.w3.org/2000/svg" width="1024" height="1024" viewBox="0 0 1024 1024">
  <title></title>
  <g id="icomoon-ignore">
  </g>
  <path d="M160 512c-0.009-61.79 16.248-122.499 47.139-176.017s75.325-97.962 128.838-128.863c53.513-30.901 114.217-47.171 176.011-47.173s122.5 16.262 176.013 47.159c7.347 4.176 16.047 5.278 24.201 3.064s15.104-7.564 19.328-14.882c4.224-7.318 5.385-16.010 3.226-24.18s-7.462-15.153-14.754-19.427c-79.305-45.787-171.503-64.127-262.293-52.175-90.789 11.951-175.099 53.526-239.853 118.276s-106.334 149.058-118.291 239.847c-11.957 90.79 6.377 182.989 52.158 262.298 45.782 79.305 116.453 141.291 201.053 176.341 84.598 35.051 178.401 41.207 266.857 17.515s166.622-75.908 222.374-148.553c55.757-72.644 85.982-161.655 85.995-253.231 0-8.486-3.371-16.623-9.374-22.626-5.999-5.999-14.14-9.374-22.626-9.374s-16.627 3.375-22.626 9.374c-6.003 6.003-9.374 14.14-9.374 22.626 0 93.359-37.086 182.891-103.1 248.905-66.010 66.014-155.546 103.095-248.9 103.095s-182.888-37.082-248.901-103.095c-66.013-66.014-103.098-155.546-103.098-248.905z" fill="#fff" />
  <path d="M982.656 214.655c2.974-2.975 5.333-6.507 6.946-10.394 1.609-3.887 2.436-8.054 2.436-12.262s-0.828-8.374-2.436-12.261c-1.613-3.887-3.972-7.42-6.946-10.395-2.978-2.975-6.507-5.335-10.398-6.945-3.887-1.61-8.051-2.439-12.258-2.439s-8.375 0.829-12.262 2.439c-3.887 1.61-7.42 3.97-10.394 6.945l-425.344 425.409-169.345-169.409c-2.975-2.975-6.507-5.335-10.394-6.945s-8.054-2.439-12.262-2.439c-4.207 0-8.374 0.829-12.261 2.439s-7.42 3.97-10.395 6.945c-2.975 2.975-5.335 6.508-6.945 10.395s-2.439 8.055-2.439 12.262c0 4.207 0.829 8.371 2.439 12.258 1.61 3.891 3.97 7.42 6.945 10.398l192.001 192c2.97 2.978 6.502 5.342 10.389 6.955s8.055 2.445 12.267 2.445c4.207 0 8.375-0.832 12.262-2.445s7.42-3.977 10.394-6.955l448-448.001z" fill="#fff" />
</svg>
